<svg height="472pt" viewBox="-8 0 472 472" width="472pt" xmlns="http://www.w3.org/2000/svg"><path d="m455.429688 171.839844-28.71875 243.921875c-3.921876 32.101562-31.175782 56.234375-63.519532 56.238281h-270.71875c-32.34375-.003906-59.601562-24.136719-63.519531-56.238281l-28.722656-243.921875c-1.097657-9.089844 1.75-18.210938 7.820312-25.0625 6.070313-6.851563 14.785157-10.773438 23.941407-10.777344h391.679687c9.148437.015625 17.855469 3.941406 23.925781 10.789062 6.066406 6.847657 8.917969 15.964844 7.832032 25.050782zm0 0" fill="#ff9478"/><path d="m75.832031 232h32v-32h-32zm0 0" fill="#ee8700"/><path d="m347.832031 232h32v-32h-32zm0 0" fill="#ee8700"/><path d="m371.832031 200h-16v-96c-.058593-48.578125-39.421875-87.941406-88-88h-80c-48.578125.058594-87.945312 39.421875-88 88v96h-16v-96c.066407-57.410156 46.589844-103.9335938 104-104h80c57.410157.0664062 103.933594 46.589844 104 104zm0 0" fill="#ffa733"/><path d="m455.429688 171.839844-28.71875 243.921875c-3.921876 32.101562-31.175782 56.234375-63.519532 56.238281h-269.839844c111.121094-34.960938 269.839844-120.558594 350-329.199219 8.855469 6.878907 13.441407 17.90625 12.078126 29.039063zm0 0" fill="#ff7956"/></svg>